<?xml version="1.0" encoding="UTF-8"?>
<!DOCTYPE svg PUBLIC "-//W3C//DTD SVG 1.1//EN" "http://www.w3.org/Graphics/SVG/1.1/DTD/svg11.dtd">
<!-- Creator: CorelDRAW 2021.5 -->
<svg xmlns="http://www.w3.org/2000/svg" xml:space="preserve" width="12.192mm" height="12.192mm" version="1.1" style="shape-rendering:geometricPrecision; text-rendering:geometricPrecision; image-rendering:optimizeQuality; fill-rule:evenodd; clip-rule:evenodd"
viewBox="0 0 1219.2 1219.2"
 xmlns:xlink="http://www.w3.org/1999/xlink"
 xmlns:xodm="http://www.corel.com/coreldraw/odm/2003">
 <defs>
  <style type="text/css">
   <![CDATA[
    .fil0 {fill:#FDFDFD}
   ]]>
  </style>
 </defs>
 <g id="Слой_x0020_1">
  <metadata id="CorelCorpID_0Corel-Layer"/>
  <g id="_2000493770832">
   <path class="fil0" d="M128.55 466.33c32.34,25.72 67.52,95.12 99.36,112.94 14.28,-23.5 27.34,-34.81 45.79,-57.44 14.08,-17.28 36.51,-45.93 50.48,-55.75l0.07 253.63 110.46 -0.06 0.07 -423.14 -113.06 0c-14.28,23.59 -82.48,115.05 -102.32,128.88 -19.76,-40.35 -66.14,-87.37 -89.31,-128.54l-112.32 0.05 0.05 422.79 110.56 -6.14 0.17 -247.22z"/>
   <path class="fil0" d="M569.63 778.93c20.22,-11.97 68.71,-41.28 84.93,-59.24 -16.82,-48.95 -37.5,-74.16 -47.06,-139.95l133.72 -1.1 0 141.72 122.74 -0.07 0 -319.6 -122.16 0.63 -0.82 90.9 -108.89 -0.07c20.48,-138.87 126.99,-97.14 249.38,-104.34l-29.23 -91.01c-158.13,-0.29 -275.77,6.29 -333.64,120.59 -54.45,107.55 9.52,318.57 51.03,361.54z"/>
   <polygon class="fil0" points="1212.54,627.85 1059.77,627.63 1059.77,296.63 949.44,296.51 949.47,713.55 948.26,719.69 1188.8,719.43 "/>
  </g>
 </g>
</svg>
