<?xml version="1.0" encoding="UTF-8"?>
<!DOCTYPE svg PUBLIC "-//W3C//DTD SVG 1.1//EN" "http://www.w3.org/Graphics/SVG/1.1/DTD/svg11.dtd">
<!-- Creator: CorelDRAW 2021.5 -->
<svg xmlns="http://www.w3.org/2000/svg" xml:space="preserve" width="12.192mm" height="12.192mm" version="1.1" style="shape-rendering:geometricPrecision; text-rendering:geometricPrecision; image-rendering:optimizeQuality; fill-rule:evenodd; clip-rule:evenodd"
viewBox="0 0 1219.2 1219.2"
 xmlns:xlink="http://www.w3.org/1999/xlink"
 xmlns:xodm="http://www.corel.com/coreldraw/odm/2003">
 <defs>
  <style type="text/css">
   <![CDATA[
    .fil0 {fill:white}
    .fil1 {fill:#838383}
   ]]>
  </style>
 </defs>
 <g id="Слой_x0020_1">
  <metadata id="CorelCorpID_0Corel-Layer"/>
  <g id="_1963059239216">
   <path class="fil0" d="M835.35 320.06zm0 0zm0 0c27.5,7.35 12.47,6.68 34.39,22.36 52.45,37.52 51.69,10.97 79.09,62.75 -34.74,0 -70.04,0.84 -104.62,0.6 -72.49,-0.48 -38.95,-7.35 -84.51,-19.51 -14.97,37.1 -57.97,25.2 -124.35,36.4 -88.56,14.93 -117.38,27.29 -198.95,21.3l-67.08 15.21c-37.08,17.24 -96.43,21.64 -148.61,21.64 -4.22,-49.46 9.02,-17.08 -18.92,-28.36l-10.79 8.18c-36.31,40.58 -16.93,97.15 19.43,125.15 51.47,39.63 89.71,4.3 109.63,-5.59 16.97,-8.44 25.18,-10.24 42.48,-14.27 0,132.05 16.4,145.78 -34.73,230.03l-107.1 157.67c70.63,-16.45 73.01,-0.56 120.82,-49.39 85.23,-87.03 140.46,-89.9 87.01,-215.17 -22.73,-53.26 -33.98,-67.07 -18.71,-132.59 45.21,-10.54 132.6,-36.78 179.66,-37.83 0,79.71 -7.73,129.52 -8.82,199.48 -0.77,49.17 -0.82,60.21 -38.99,49.32 -32.27,-9.2 -38.6,-22.8 -75.11,-31.31 12.34,53.01 120.89,154.86 160.75,151.3 74.7,-6.66 89.65,-144.66 84.74,-207.65 -3.21,-41.27 -17.69,-90.99 -27.14,-125.84 -18.93,-69.88 1.87,-54.21 74.78,-54.21 10.6,45.52 27.6,79.96 28.81,131.95 5.85,253.25 0.1,168.05 121.98,294.09 26.62,27.52 11.6,18.39 66.7,18.39 28.24,-42.16 39.72,-53.43 9.72,-103.99 -106.35,-179.25 -70.88,-15.78 -142.1,-321.53 123.84,10.31 136.68,99.64 196.23,25.88 30.37,-37.64 29.08,-66.16 -3.91,-104.66 -82.44,-96.22 -20.88,-55.2 -62.3,-98.51 -28.89,-30.2 -134.05,-46.63 -180.97,-55.44 -47.17,-8.86 -98.2,1.3 -145.43,-5.88 -35.61,-5.41 -92.01,-20.21 -136.13,-24.61 -51.13,-5.12 -223.86,-11.25 -244.31,-67.74 33.35,-22.34 20.55,-18.91 75.64,-18.91 -11.81,-7.5 7.42,0.26 -19.58,-9.58 -30.27,-11.03 -54.58,-11.59 -77.14,6.97 -70.42,57.87 -71.33,289.09 263.62,188.42 84.36,-25.36 141.64,-12.56 174.85,-21.99l24.97 -8.53c25.49,-2.38 86.61,8.18 115.54,14.92l9.46 -18.92z"/>
   <path class="fil0" d="M296.36 83.66l0 9.46c1.68,1.47 4.47,1.34 5.28,4.16 4.49,15.49 119.5,50.88 134.38,54.75 155.14,40.29 409.07,6.53 482.05,67.78 31.93,26.81 4.92,23.8 21.3,15.15 18.25,-9.64 101.6,-206.5 -255.42,-189.23 -180.84,8.75 -123.27,66.09 -406.5,0.1 7.46,27.98 3.84,15.34 18.91,37.83z"/>
   <polygon class="fil1" points="296.36,93.12 296.36,83.66 "/>
  </g>
 </g>
</svg>
